<?xml version="1.0" encoding="UTF-8" standalone="no"?>
<!-- Created with Inkscape (http://www.inkscape.org/) -->

<svg
   viewBox="0 0 200 100"
   version="1.1"
   id="svg21420"
   xml:space="preserve"
   xmlns="http://www.w3.org/2000/svg"
><defs
     id="defs21417"><clipPath
       clipPathUnits="userSpaceOnUse"
       id="clipPath25242"><path
         style="display:inline;opacity:1;fill:#ffffff;fill-opacity:1;stroke-width:0;paint-order:stroke fill markers"
         d="m 83.783284,234.71204 c 13.666782,-0.5942 21.985686,8.31891 32.681426,6.53629 10.69574,-1.78262 95.07323,5.34787 98.04427,-8.31891 2.97104,-13.66678 -26.73934,-10.10153 -26.73934,-10.10153 0,0 1.78262,-11.88415 -10.10154,-16.04361 -11.88415,-4.15945 -21.98568,-2.37683 -21.98568,-2.37683 0,0 -2.37683,-29.71038 -16.04361,-38.6235 -13.66678,-8.91312 -32.68142,-5.94208 -32.68142,-5.94208 0,0 10.30382,-41.0307 -33.588829,-44.02832 -50.741129,-3.46533 -60.295992,47.59357 -60.295992,47.59357 0,0 -18.4204385,-4.15945 -26.145138,3.56524 -7.724701,7.72471 -7.724701,20.20307 -7.724701,20.20307 0,0 -21.985686,-3.56525 -29.116177,5.34787 -7.130495,8.91311 -10.695739,20.79727 -10.695739,20.79727 0,0 -24.956723,-8.91312 -32.087217,-3.56525 -7.130492,5.34787 -6.536285,10.10153 -6.536285,10.10153 0,0 -16.637812,-18.42044 -27.927762,-6.53628 -11.28994,11.88415 9.50732,27.33355 9.50732,27.33355 0,0 56.449735,8.91312 80.218044,1.78262 23.768309,-7.13049 57.04394,-8.3189 70.116509,-1.78262 13.072571,6.53629 51.101861,-5.94208 51.101861,-5.94208 z"
         id="path25244" /></clipPath></defs><g
     id="layer1"><g
       id="g25304"
       transform="matrix(0.57931331,0,0,0.77186214,75.611103,-89.261853)"
       style="display:inline;stroke-width:1.49545"><path
         style="display:inline;opacity:1;fill:#ffffff;fill-opacity:1;stroke-width:0;paint-order:stroke fill markers"
         d="m 83.783285,234.71204 c 13.66678,-0.5942 21.985685,8.31891 32.681425,6.53629 10.69574,-1.78262 95.07323,5.34787 98.04427,-8.31891 2.97104,-13.66678 -26.73934,-10.10153 -26.73934,-10.10153 0,0 1.78262,-11.88415 -10.10154,-16.04361 -11.88415,-4.15945 -21.98568,-2.37683 -21.98568,-2.37683 0,0 -2.37683,-29.71038 -16.04361,-38.6235 -13.66678,-8.91312 -32.68142,-5.94208 -32.68142,-5.94208 0,0 10.30382,-41.0307 -33.588829,-44.02832 -50.741129,-3.46533 -60.295992,47.59357 -60.295992,47.59357 0,0 -18.4204384,-4.15945 -26.145138,3.56524 -7.724701,7.72471 -7.724701,20.20307 -7.724701,20.20307 0,0 -21.985685,-3.56525 -29.116177,5.34787 -7.130494,8.91311 -10.695739,20.79727 -10.695739,20.79727 0,0 -24.956724,-8.91312 -32.087216,-3.56525 -7.130492,5.34787 -6.536285,10.10153 -6.536285,10.10153 0,0 -16.637813,-18.42044 -27.927763,-6.53628 -11.28994,11.88415 9.50732,27.33355 9.50732,27.33355 0,0 56.449735,8.91312 80.218044,1.78262 23.768309,-7.13049 57.04394,-8.3189 70.116509,-1.78262 13.07257,6.53629 51.101862,-5.94208 51.101862,-5.94208 z"
         id="path25237" /><g
         id="g25240"
         clip-path="url(#clipPath25242)"
         style="stroke-width:1.49545"><path
           style="opacity:1;fill:#d1d5f8;fill-opacity:1;stroke-width:0;paint-order:stroke fill markers"
           d="m 16.837121,119.66382 c 0,0 46.302082,-18.03977 64.943181,6.01326 18.641098,24.05303 0,56.52462 0,56.52462 0,0 28.863638,-12.02651 40.288828,5.41193 11.42519,17.43845 3.00663,34.8769 3.00663,34.8769 0,0 18.03977,-5.41193 25.857,4.8106 7.81724,10.22254 10.82387,28.26231 10.82387,28.26231 l -307.27746,10e-6 17.43845,-78.17235 z"
           id="path25221" /><path
           style="opacity:1;fill:#b7bce8;fill-opacity:1;stroke-width:0;paint-order:stroke fill markers"
           d="m -71.557765,175.58712 c 0,0 30.334166,-0.49547 42.88623,6.67714 29.46496249,16.83712 20.8543001,30.60505 20.8543001,30.60505 0,0 15.6344698,-11.42518 28.2623099,2.40531 12.627841,13.83049 24.053031,36.07954 24.053031,36.07954 l -167.168556,6.61459 -40.89015,-40.89015 z"
           id="path25246" /></g></g></g></svg>
