<?xml version="1.0" encoding="UTF-8" standalone="no"?>
<!-- Created with Inkscape (http://www.inkscape.org/) -->

<svg
   viewBox="0 0 200 100"
   version="1.1"
   id="svg21420"
   xml:space="preserve"
   xmlns="http://www.w3.org/2000/svg"
><defs
     id="defs21417"><clipPath
       clipPathUnits="userSpaceOnUse"
       id="clipPath23807"><path
         style="display:inline;opacity:1;fill:#ffffff;stroke-width:0;paint-order:stroke fill markers"
         d="m -69.729271,153.64484 c 0,0 16.350311,-0.96179 20.197445,-7.21337 3.847132,-6.25159 11.060504,-9.37739 3.366241,-15.14809 -7.694266,-5.77069 -22.842347,2.40446 -22.842347,2.40446 0,0 -5.049361,-18.27388 -16.109868,-15.38853 -11.060504,2.88535 -24.04457,18.27388 -24.04457,18.27388 0,0 -14.1863,-8.17516 -21.64012,-5.04936 -7.45382,3.12579 -7.69427,12.02229 -7.69427,12.02229 0,0 -8.4156,-4.56847 -15.86942,-0.24045 -7.45382,4.32802 -9.61783,8.4156 -9.61783,8.4156 0,0 -49.53182,-2.40446 -51.21494,5.28981 -1.68312,7.69426 32.21973,6.01114 32.21973,6.01114 0,0 54.58119,-4.80891 68.04615,-2.6449 13.46496,2.16401 35.345522,5.04936 41.356668,1.20223 6.011143,-3.84713 3.847131,-7.93471 3.847131,-7.93471 z"
         id="path23809" /></clipPath><clipPath
       clipPathUnits="userSpaceOnUse"
       id="clipPath24744"><path
         style="display:inline;opacity:1;fill:#ffffff;stroke-width:0;paint-order:stroke fill markers"
         d="m -117.81842,138.25631 c 0,0 -29.09394,-2.6449 -40.63533,-1.20223 -11.5414,1.44268 -33.18152,6.73248 -40.15445,6.73248 -6.97292,0 -12.50318,-0.96178 -12.50318,-4.08758 0,-3.12579 13.46497,-3.60668 13.46497,-3.60668 0,0 0.24044,-8.17516 9.13694,-10.33917 8.89649,-2.16401 13.22451,1.44268 13.22451,1.44268 0,0 -3.84713,-19.71656 14.1863,-21.15923 18.03343,-1.44268 27.65127,18.75477 27.65127,18.75477 0,0 4.08757,-3.36624 8.89649,2.6449 4.80891,6.01114 6.73248,10.82006 6.73248,10.82006 z"
         id="path24746" /></clipPath></defs><g
     id="layer1"><g
       id="g25141"
       style="display:inline"><g
         id="g24751"
         style="display:inline;stroke-width:0.738461"
         transform="matrix(1.3541674,0,0,1.3541674,287.88015,-134.73846)"><path
           style="display:inline;opacity:1;fill:#ffffff;stroke-width:0;paint-order:stroke fill markers"
           d="m -117.81842,138.25631 c 0,0 -29.09394,-2.6449 -40.63533,-1.20223 -11.5414,1.44268 -33.18152,6.73248 -40.15445,6.73248 -6.97292,0 -12.50318,-0.96178 -12.50318,-4.08758 0,-3.12579 13.46497,-3.60668 13.46497,-3.60668 0,0 0.24044,-8.17516 9.13694,-10.33917 8.89649,-2.16401 13.22451,1.44268 13.22451,1.44268 0,0 -3.84713,-19.71656 14.1863,-21.15923 18.03343,-1.44268 27.65127,18.75477 27.65127,18.75477 0,0 4.08757,-3.36624 8.89649,2.6449 4.80891,6.01114 6.73248,10.82006 6.73248,10.82006 z"
           id="path22102" /><g
           id="g24734"
           clip-path="url(#clipPath24744)"
           style="stroke-width:0.738461"><path
             style="opacity:1;fill:#d1d5f8;fill-opacity:1;stroke-width:0;paint-order:stroke fill markers"
             d="m -182.54546,105.12202 c 0,0 11.68581,-6.358195 24.83879,7.68641 6.71748,7.17285 0.0565,17.03011 0.0565,17.03011 0,0 9.46788,4.69781 9.46788,10.74076 0,6.04294 -56.72848,10.49432 -56.72848,10.49432 l -20.32627,-5.49359 -1.09872,-23.62242 z"
             id="path24731" /></g></g><g
         id="g24757"
         style="display:inline;stroke-width:0.910164"
         transform="matrix(0.90940604,0,0,1.3274045,235.0108,-129.87921)"><path
           style="display:inline;opacity:1;fill:#ffffff;stroke-width:0;paint-order:stroke fill markers"
           d="m -69.72927,153.64484 c 0,0 18.821128,2.75041 24.430304,-1.98454 5.341082,-4.50865 6.827645,-14.60622 -0.866618,-20.37692 -7.694266,-5.77069 -22.842347,2.40446 -22.842347,2.40446 0,0 -5.049361,-18.27388 -16.109868,-15.38853 -11.060504,2.88535 -24.044571,18.27388 -24.044571,18.27388 0,0 -14.1863,-8.17516 -21.64012,-5.04936 -7.45382,3.12579 -7.69427,12.02229 -7.69427,12.02229 0,0 -8.4156,-4.56847 -15.86942,-0.24045 -7.45382,4.32802 -9.61783,8.4156 -9.61783,8.4156 0,0 -49.53182,-2.40446 -51.21494,5.28981 -1.68312,7.69426 32.21973,6.01114 32.21973,6.01114 0,0 54.58119,-4.80891 68.04615,-2.6449 13.46496,2.16401 35.345523,5.04936 41.356669,1.20223 6.011142,-3.84713 3.847131,-7.93471 3.847131,-7.93471 z"
           id="path22104" /><g
           id="g23805"
           clip-path="url(#clipPath23807)"
           style="stroke-width:0.910164"><path
             style="display:inline;opacity:1;fill:#d1d5f8;fill-opacity:1;stroke-width:0;paint-order:stroke fill markers"
             d="m -105.79613,145.22924 c 0,0 -8.65605,-18.03343 -17.3121,-17.79299 -8.65604,0.24045 -95.45696,17.3121 -95.45696,17.3121 l 3.36624,24.28502 147.393246,-3.1258 c 0,0 -3.366241,-4.08757 -6.251588,-6.25159 -2.88535,-2.16401 -7.453821,-1.92356 -7.453821,-1.92356 0,0 13.945854,-9.61783 7.694266,-16.83121 -6.251591,-7.21337 -15.628974,0 -15.628974,0 0,0 -4.08758,-7.21337 -8.896493,-4.80891 -4.808916,2.40446 -7.453816,9.13694 -7.453816,9.13694 z"
             id="path23796" /></g><path
           style="display:inline;opacity:1;fill:#b7bce8;fill-opacity:1;stroke-width:0;paint-order:stroke fill markers"
           d="m -241.40308,165.82361 c 0,0 1.46237,-3.15194 3.87703,-3.66029 2.41466,-0.50835 4.9564,1.01669 4.9564,1.01669 0,0 0.38127,-3.05009 2.92301,-4.32096 2.54175,-1.27087 5.33766,-0.38126 5.33766,-0.38126 0,0 1.14379,-8.26067 10.42116,-7.87941 9.27737,0.38126 11.69202,7.87941 11.69202,7.87941 0,0 5.46475,-1.65214 10.80242,0.50835 5.33766,2.16048 7.87941,6.98979 7.87941,6.98979 z"
           id="path22100" /></g></g></g></svg>
