<?xml version="1.0" encoding="UTF-8" standalone="no"?>
<!-- Created with Inkscape (http://www.inkscape.org/) -->

<svg
   viewBox="0 0 200 100"
   version="1.1"
   id="svg21420"
   xml:space="preserve"
   xmlns="http://www.w3.org/2000/svg"
><defs
     id="defs21417"><clipPath
       clipPathUnits="userSpaceOnUse"
       id="clipPath25458"><path
         style="opacity:1;fill:#d1d5f8;fill-opacity:1;stroke-width:0;paint-order:stroke fill markers"
         d="m 111.03525,-135.99667 c 28.40437,0 55.51763,12.48071 74.45387,6.02518 18.93624,-6.45554 7.31628,-21.51847 -3.44295,-25.39179 -10.75923,-3.87332 -16.7844,0.86074 -16.7844,0.86074 0,0 22.3792,-42.17618 -24.53105,-53.79615 -46.910237,-11.61997 -52.505037,24.96142 -52.505037,24.96142 0,0 -12.050334,-10.32887 -22.379197,-2.58222 -10.328859,7.74665 -6.025168,18.50587 -6.025168,18.50587 0,0 -14.202182,-0.86073 -20.227351,9.46813 -6.025171,10.32886 4.73406,14.20218 -8.177017,13.77181 -12.911075,-0.43037 -25.3917813,0 -19.796982,8.17701 5.594799,8.17702 99.415282,0 99.415282,0 z"
         id="path25460" /></clipPath></defs><g
     id="layer1"><g
       id="g25419"
       transform="translate(-0.24699645,218.57843)"
       style="display:inline"><g
         id="g25456"
         clip-path="url(#clipPath25458)"><path
           style="display:inline;opacity:1;fill:#ffffff;fill-opacity:1;stroke-width:0;paint-order:stroke fill markers"
           d="m 111.03525,-135.99667 c 28.40437,0 55.51763,12.48071 74.45387,6.02518 18.93624,-6.45554 7.31628,-21.51847 -3.44295,-25.39179 -10.75923,-3.87332 -16.7844,0.86074 -16.7844,0.86074 0,0 22.3792,-42.17618 -24.53105,-53.79615 -46.910236,-11.61997 -52.505036,24.96142 -52.505036,24.96142 0,0 -12.050336,-10.32887 -22.379198,-2.58222 -10.32886,7.74665 -6.025169,18.50587 -6.025169,18.50587 0,0 -14.202182,-0.86073 -20.22735,9.46813 -6.025171,10.32886 4.73406,14.20218 -8.177017,13.77181 -12.911075,-0.43037 -25.3917814,0 -19.796982,8.17701 5.594799,8.17702 99.415282,0 99.415282,0 z"
           id="path25451" /><path
           style="display:inline;opacity:1;fill:#d1d5f8;fill-opacity:1;stroke-width:0;paint-order:stroke fill markers"
           d="m 46.910241,-197.10909 c 0,0 19.366613,4.30369 27.113259,14.20218 7.746645,9.8985 6.455539,14.63256 6.455539,14.63256 0,0 3.873323,-6.88591 12.480705,-4.73406 8.607386,2.15184 12.050336,8.17701 12.050336,8.17701 0,0 5.5948,-26.25252 23.67031,-18.07551 18.0755,8.17702 9.46812,32.27769 9.46812,32.27769 0,0 9.89849,-4.73406 15.06292,0 5.16443,4.73406 8.17702,15.49329 8.17702,15.49329 0,0 5.16443,-0.43036 9.89849,2.15185 4.73406,2.58221 7.31627,8.60738 7.31627,8.60738 l -166.552873,-1.2911 -12.91107539,-40.02434 z"
           id="path25624" /><path
           style="opacity:1;fill:#b7bce8;fill-opacity:1;stroke-width:0;paint-order:stroke fill markers"
           d="m 11.619968,-161.81882 c 24.092693,-13.9321 49.66937,11.16619 49.66937,11.16619 0,0 12.536323,-10.25845 17.347419,3.40445 3.663893,10.405 14.753356,20.28927 14.753356,20.28927 l -90.1650129,0.96435 z"
           id="path25767" /></g></g></g></svg>
