<?xml version="1.0" encoding="UTF-8" standalone="no"?>
<!-- Created with Inkscape (http://www.inkscape.org/) -->

<svg
   viewBox="0 0 200 100"
   version="1.1"
   id="svg21420"
   xml:space="preserve"
   xmlns="http://www.w3.org/2000/svg"
><defs
     id="defs21417"><clipPath
       clipPathUnits="userSpaceOnUse"
       id="clipPath26522"><path
         style="display:inline;opacity:1;fill:#ffffff;fill-opacity:1;stroke-width:0;paint-order:stroke fill markers"
         d="m -189.06003,-88.838781 c 0,0 -19.43348,-2.498592 -27.20687,-0.555244 -7.7734,1.943349 -25.81878,6.107666 -26.65164,-0.555241 -0.83286,-6.662907 5.55242,-11.382474 9.43912,-13.048194 3.8867,-1.66573 8.32863,2.49859 8.32863,2.49859 0,0 2.49859,-8.60626 10.54961,-9.1615 8.05102,-0.55524 9.43912,6.38529 13.32582,7.49577 3.88669,1.11049 10.5496,0.83286 12.21533,4.441939 1.66573,3.609078 0,8.88388 0,8.88388 z"
         id="path26524" /></clipPath><clipPath
       clipPathUnits="userSpaceOnUse"
       id="clipPath26752"><path
         style="opacity:1;fill:#ffffff;fill-opacity:1;stroke-width:0;paint-order:stroke fill markers"
         d="m 50.199891,43.583122 c -6.884086,-3.677317 -2.494796,-18.479339 10.344139,-21.44217 12.838933,-2.962833 20.246012,3.950441 20.246012,3.950441 0,0 2.469028,-13.332741 13.826548,-13.332741 11.35752,0 16.78938,20.739818 16.78938,20.739818 0,0 2.46902,-7.900882 13.33274,-4.938051 10.86371,2.96283 16.40759,10.537798 12.34513,15.307961 -72.215124,7.30776 -79.999864,3.392061 -86.883949,-0.285258 z"
         id="path26754" /></clipPath><clipPath
       clipPathUnits="userSpaceOnUse"
       id="clipPath26827"><path
         style="opacity:1;fill:#ffffff;fill-opacity:1;stroke-width:0;paint-order:stroke fill markers"
         d="m 120.05596,86.365882 c -5.4275,-2.663084 -1.89522,-17.372846 7.26501,-20.215678 9.16023,-2.842829 12.95067,3.474569 12.95067,3.474569 0,0 -2.21109,-9.791967 9.16023,-10.107837 11.37131,-0.31587 12.00306,12.318929 12.00306,12.318929 0,0 3.15869,-12.318929 10.73957,-8.84436 7.58088,3.474569 5.68566,16.109368 5.68566,16.109368 0,0 6.32804,-8.28054 11.38196,-6.069452 5.05392,2.211092 11.58701,6.817739 3.46393,13.018593 -33.13655,8.013422 -64.68499,4.429006 -72.65009,0.315868 z"
         id="path26829" /></clipPath></defs><g
     id="layer1"><g
       id="g428"
       style="display:inline"><g
         id="g26528"
         transform="translate(251.45008,180.8676)"><path
           style="display:inline;opacity:1;fill:#ffffff;fill-opacity:1;stroke-width:0;paint-order:stroke fill markers"
           d="m -189.06003,-88.83878 c 0,0 -19.43348,-2.498593 -27.20687,-0.555244 -7.7734,1.943348 -25.81878,6.107666 -26.65164,-0.555241 -0.83286,-6.662909 5.55242,-11.382475 9.43912,-13.048195 3.8867,-1.66573 8.32863,2.49859 8.32863,2.49859 0,0 2.49859,-8.60626 10.54961,-9.1615 8.05102,-0.55524 9.43912,6.38529 13.32582,7.49577 3.88669,1.11049 10.5496,0.83286 12.21533,4.44194 1.66573,3.609076 0,8.88388 0,8.88388 z"
           id="path26447" /><path
           style="opacity:1;fill:#d1d5f8;fill-opacity:1;stroke-width:0;paint-order:stroke fill markers"
           d="m -231.29474,-111.40351 c 0,0 7.51974,-1.67105 11.41886,2.50658 3.89913,4.17763 3.62062,9.747809 3.62062,9.747809 0,0 6.68421,-3.342109 9.4693,2.506578 2.78508,5.848686 3.89912,12.532894 3.89912,12.532894 l -59.60088,-0.557017 -1.11403,-25.901314 z"
           id="path26449"
           clip-path="url(#clipPath26522)" /></g><g
         id="g415"><path
           style="opacity:1;fill:#ffffff;fill-opacity:1;stroke-width:0;paint-order:stroke fill markers"
           d="m 50.19989,43.583123 c -6.884085,-3.677317 -2.494796,-18.47934 10.344139,-21.442171 12.838935,-2.962833 20.246014,3.950441 20.246014,3.950441 0,0 2.469026,-13.332741 13.826546,-13.332741 11.357521,0 16.789381,20.739817 16.789381,20.739817 0,0 2.46902,-7.900881 13.33274,-4.938051 10.86371,2.962831 16.40759,10.537799 12.34513,15.307961 C 64.868717,51.17614 57.083975,47.26044 50.19989,43.583123 Z"
           id="path26691" /><g
           id="g26750"
           clip-path="url(#clipPath26752)"><path
             style="opacity:1;fill:#d1d5f8;fill-opacity:1;stroke-width:0;paint-order:stroke fill markers"
             d="m 35.163871,25.37599 c 12.325482,-16.3131369 36.61393,-6.16274 38.4265,-0.362514 1.812571,5.800226 3.62514,11.962967 3.62514,11.962967 0,0 11.23794,-4.350171 19.938278,-0.362514 8.700341,3.987655 6.525251,14.138052 6.525251,14.138052 l -64.164999,2.900113 z"
             id="path26743" /></g></g><g
         id="g410"><path
           style="opacity:1;fill:#ffffff;fill-opacity:1;stroke-width:0;paint-order:stroke fill markers"
           d="m 120.05596,86.365881 c -5.4275,-2.663083 -1.89522,-17.372845 7.26501,-20.215677 9.16023,-2.842829 12.95067,3.474569 12.95067,3.474569 0,0 -2.21109,-9.791967 9.16023,-10.107837 11.37131,-0.31587 12.00306,12.318929 12.00306,12.318929 0,0 3.15869,-12.318929 10.73957,-8.84436 7.58088,3.474569 5.68566,16.109368 5.68566,16.109368 0,0 6.32804,-8.280541 11.38196,-6.069452 5.05392,2.211091 11.58701,6.81774 3.46393,13.018593 -33.13655,8.013423 -64.68499,4.429007 -72.65009,0.315867 z"
           id="path26693" /><g
           id="g26825"
           clip-path="url(#clipPath26827)"><path
             style="opacity:1;fill:#d1d5f8;fill-opacity:1;stroke-width:0;paint-order:stroke fill markers"
             d="m 116.72956,60.177347 c 0,0 26.10101,3.262628 30.8137,7.612796 4.71268,4.350171 -1e-5,10.512912 -1e-5,10.512912 0,0 6.52525,-7.250284 14.13805,-1.81257 7.6128,5.437711 1.81258,9.062853 1.81258,9.062853 0,0 9.42537,-5.075199 15.58811,-2.537601 6.16274,2.5376 9.42537,9.787884 9.42537,9.787884 l -79.3906,0.725028 z"
             id="path26818" /></g></g></g></g></svg>
