<?xml version="1.0" encoding="UTF-8" standalone="no"?>
<!-- Created with Inkscape (http://www.inkscape.org/) -->

<svg
   viewBox="0 0 100 100"
   version="1.1"
   id="svg5"
   xml:space="preserve"
   xmlns:xlink="http://www.w3.org/1999/xlink"
   xmlns="http://www.w3.org/2000/svg"
   ><defs
     id="defs2"><linearGradient
       id="linearGradient21010"><stop
         style="stop-color:#a94601;stop-opacity:1;"
         offset="0"
         id="stop21006" /><stop
         style="stop-color:#a94601;stop-opacity:0;"
         offset="1"
         id="stop21008" /></linearGradient><linearGradient
       id="linearGradient21002"><stop
         style="stop-color:#a94601;stop-opacity:1;"
         offset="0"
         id="stop20998" /><stop
         style="stop-color:#a94601;stop-opacity:0;"
         offset="1"
         id="stop21000" /></linearGradient><linearGradient
       id="linearGradient19754"><stop
         style="stop-color:#401e06;stop-opacity:1;"
         offset="0"
         id="stop19750" /><stop
         style="stop-color:#833700;stop-opacity:1;"
         offset="1"
         id="stop19752" /></linearGradient><linearGradient
       id="linearGradient13587"><stop
         style="stop-color:#be6326;stop-opacity:0.57790369;"
         offset="0"
         id="stop13583" /><stop
         style="stop-color:#a94601;stop-opacity:0;"
         offset="1"
         id="stop13585" /></linearGradient><linearGradient
       id="linearGradient7046"><stop
         style="stop-color:#632d0a;stop-opacity:1;"
         offset="0"
         id="stop7042" /><stop
         style="stop-color:#af4800;stop-opacity:1;"
         offset="1"
         id="stop7044" /></linearGradient><linearGradient
       id="linearGradient5113"><stop
         style="stop-color:#753cad;stop-opacity:0.52391303;"
         offset="0"
         id="stop5109" /><stop
         style="stop-color:#845cad;stop-opacity:0.09565217;"
         offset="1"
         id="stop5111" /></linearGradient><linearGradient
       id="linearGradient4967"><stop
         style="stop-color:#2d2d88;stop-opacity:0.68478262;"
         offset="0.22712418"
         id="stop4963" /><stop
         style="stop-color:#0e0e24;stop-opacity:0.86521739;"
         offset="0.46157432"
         id="stop6166" /></linearGradient><linearGradient
       id="linearGradient1920"><stop
         style="stop-color:#193392;stop-opacity:0.94130433;"
         offset="0.15032679"
         id="stop1916" /><stop
         style="stop-color:#798dde;stop-opacity:0;"
         offset="1"
         id="stop1918" /></linearGradient><linearGradient
       id="linearGradient1877"><stop
         style="stop-color:#6b89bb;stop-opacity:1;"
         offset="0.47058827"
         id="stop1873" /><stop
         style="stop-color:#506483;stop-opacity:1;"
         offset="1"
         id="stop1875" /></linearGradient><linearGradient
       id="linearGradient1743"><stop
         style="stop-color:#352ea7;stop-opacity:1;"
         offset="0"
         id="stop1739" /><stop
         style="stop-color:#1a1773;stop-opacity:1;"
         offset="0.23821989"
         id="stop1871" /><stop
         style="stop-color:#000036;stop-opacity:1;"
         offset="1"
         id="stop1741" /></linearGradient><linearGradient
       xlink:href="#linearGradient1743"
       id="linearGradient1745"
       x1="50.143375"
       y1="49.926304"
       x2="50.143375"
       y2="19.536381"
       gradientUnits="userSpaceOnUse" /><radialGradient
       xlink:href="#linearGradient1877"
       id="radialGradient1879"
       cx="26.93153"
       cy="45.165485"
       fx="26.93153"
       fy="45.165485"
       r="10"
       gradientUnits="userSpaceOnUse" /><radialGradient
       xlink:href="#linearGradient1920"
       id="radialGradient1879-5"
       cx="26.93153"
       cy="45.165485"
       fx="26.93153"
       fy="45.165485"
       r="10"
       gradientUnits="userSpaceOnUse"
       gradientTransform="matrix(2,0,0,2,-26.714458,-45.382555)" /><linearGradient
       xlink:href="#linearGradient5113"
       id="linearGradient5115"
       x1="-1.6879036"
       y1="26.566393"
       x2="106.12694"
       y2="26.566393"
       gradientUnits="userSpaceOnUse" /><radialGradient
       xlink:href="#linearGradient4967"
       id="radialGradient5405"
       cx="36.3988"
       cy="46.67049"
       fx="36.3988"
       fy="46.67049"
       r="8.7987509"
       gradientTransform="matrix(3.0876745,-0.0879639,0.08780821,3.0822115,-100.09383,-95.827215)"
       gradientUnits="userSpaceOnUse" /><linearGradient
       xlink:href="#linearGradient19754"
       id="linearGradient7048"
       x1="45.739319"
       y1="86.148636"
       x2="46.385036"
       y2="54.948963"
       gradientUnits="userSpaceOnUse" /><clipPath
       clipPathUnits="userSpaceOnUse"
       id="clipPath12202"><circle
         style="display:inline;fill:url(#radialGradient12206);fill-opacity:1;fill-rule:evenodd;stroke-width:0.264582"
         id="circle12204"
         cx="26.93153"
         cy="45.165485"
         r="10" /></clipPath><radialGradient
       xlink:href="#linearGradient1877"
       id="radialGradient12206"
       gradientUnits="userSpaceOnUse"
       cx="26.93153"
       cy="45.165485"
       fx="26.93153"
       fy="45.165485"
       r="10" /><linearGradient
       xlink:href="#linearGradient13587"
       id="linearGradient13589"
       x1="23.308453"
       y1="52.956802"
       x2="6.0229363"
       y2="74.551239"
       gradientUnits="userSpaceOnUse" /><clipPath
       clipPathUnits="userSpaceOnUse"
       id="clipPath14535"><path
         style="display:inline;fill:url(#linearGradient14539);fill-opacity:1;stroke-width:0;paint-order:stroke fill markers"
         d="m 0,50.000001 c 0,0 7.7203813,-2.519657 18.914934,-1.747618 11.194554,0.772038 10.422516,6.176303 18.528915,6.562322 8.1064,0.38602 27.957402,-10.177682 33.197639,-6.562322 C 88.422967,60.520228 100,50.000001 100,50.000001 V 100 H 0 Z"
         id="path14537" /></clipPath><linearGradient
       xlink:href="#linearGradient7046"
       id="linearGradient14539"
       gradientUnits="userSpaceOnUse"
       x1="45.739319"
       y1="86.148636"
       x2="46.385036"
       y2="54.948963" /><clipPath
       clipPathUnits="userSpaceOnUse"
       id="clipPath14623"><rect
         style="fill:url(#linearGradient14627);fill-opacity:1;stroke-width:0;paint-order:stroke fill markers"
         id="rect14625"
         width="100"
         height="60"
         x="1.4210855e-14"
         y="-7.1054274e-15" /></clipPath><linearGradient
       xlink:href="#linearGradient1743"
       id="linearGradient14627"
       gradientUnits="userSpaceOnUse"
       x1="50.143375"
       y1="49.926304"
       x2="50.143375"
       y2="19.536381" /><linearGradient
       xlink:href="#linearGradient21002"
       id="linearGradient21004"
       x1="53.967064"
       y1="58.748531"
       x2="80.643738"
       y2="58.748531"
       gradientUnits="userSpaceOnUse" /><linearGradient
       xlink:href="#linearGradient21010"
       id="linearGradient21012"
       x1="89.798279"
       y1="76.903625"
       x2="108.17534"
       y2="76.903625"
       gradientUnits="userSpaceOnUse" /></defs><g
     id="layer3"
     style="display:inline"><rect
       style="fill:url(#linearGradient1745);fill-opacity:1;stroke-width:0;paint-order:stroke fill markers"
       id="rect612"
       width="100"
       height="60"
       x="1.4210855e-14"
       y="-7.1054274e-15" /><path
       style="display:inline;fill:url(#linearGradient5115);fill-opacity:1;stroke-width:0;paint-order:stroke fill markers"
       d="m 81.019374,51.903037 c 0,0 3.797781,-6.118651 -2.320867,-8.228531 C 72.579856,41.564626 66.039229,41.353639 62.452434,36.711903 58.86564,32.070169 56.333784,29.7493 50.637109,30.804241 44.940434,31.85918 32.608482,34.015949 26.373493,38.399807 16.728412,45.18132 13.503229,39.032771 8.6505061,35.445976 3.7977828,31.859181 -3.3758073,45.573398 -3.3758073,45.573398 l 2.3208676,-33.758073 c 0,0 1.26592765,2.531855 7.3845783,2.953831 6.1186504,0.421976 1.2659276,4.430747 6.1186504,6.751615 4.852722,2.320867 8.715727,6.403856 9.494457,2.953831 0.778731,-3.450024 -0.210987,-2.953831 -3.164818,-4.219759 C 15.824096,18.988916 13.292241,10.760386 7.3845779,10.338409 1.4769155,9.9164341 -1.6879036,1.0549397 -1.6879036,1.0549397 l 4.219759,-5.6966745 c 0,0 30.4928556,-3.668598 22.1537346,4.21975878 -7.806554,7.38457832 3.107187,6.89379952 -0.843951,12.87026602 -2.797433,4.231378 5.907661,6.751614 9.916434,9.916433 4.008771,3.164819 10.971371,-3.164819 19.621878,-4.430747 8.650507,-1.265928 20.67682,-7.806554 23.630652,-1.898892 2.953829,5.907663 11.18236,11.182362 16.457059,8.861494 5.274699,-2.320867 11.393348,1.687903 11.393348,1.687903 l -0.42197,10.338411 c 0,0 -6.540631,-4.852723 -12.659282,-3.375808 C 85.661107,35.023999 84.817155,30.171276 76.377638,29.7493 67.93812,29.327326 70.048,23.208675 65.617253,24.68559 c -4.430747,1.476916 -2.10988,5.274699 1.265928,6.118651 3.375806,0.843952 13.925203,9.072481 19.832868,7.17359 5.907661,-1.898891 6.540627,4.430747 10.549397,5.696675 4.008774,1.265928 8.861494,8.650507 8.861494,8.650507 l -22.786699,5.485685 z"
       id="path5106"
       clip-path="url(#clipPath14623)" /><g
       id="g9934"
       clip-path="none"
       transform="matrix(0.75,0,0,0.75,12.802207,10.030092)"
       style="stroke-width:1.33333"><g
         id="g9932"
         style="stroke-width:1.33333"><g
           id="g2048"
           transform="translate(22.448458,-24.988536)"
           style="display:inline;stroke-width:1.33333"><circle
             style="display:inline;fill:url(#radialGradient1879-5);fill-opacity:1;fill-rule:evenodd;stroke-width:0.352776"
             id="path614-3"
             cx="27.1486"
             cy="44.948414"
             r="20" /><circle
             style="display:inline;fill:url(#radialGradient1879);fill-opacity:1;fill-rule:evenodd;stroke-width:0.352776"
             id="path614"
             cx="26.93153"
             cy="45.165485"
             r="10" /><g
             id="MoonClip"
             clip-path="url(#clipPath12202)"
             style="stroke-width:1.33333"><g
               id="g4851"
               style="display:inline;stroke-width:1.33333" /><g
               id="g4811"
               style="display:inline;stroke-width:1.33333"><path
                 style="display:inline;fill:#456597;fill-opacity:1;stroke-width:0;paint-order:stroke fill markers"
                 d="m 23.13743,49.178724 c -1.258197,0.518081 -1.110173,3.034472 -0.296048,3.108484 0.814129,0.07401 1.110174,-0.96215 1.036162,-2.072323 -0.07401,-1.110173 -0.740114,-1.036161 -0.740114,-1.036161 z"
                 id="path2124" /><path
                 style="display:inline;fill:#5273b0;fill-opacity:1;stroke-width:0;paint-order:stroke fill markers"
                 d="m 26.297444,47.180653 c -0.222036,1.702265 0.444068,3.774588 1.184185,2.368368 0.740113,-1.406218 0.59209,-2.44238 -0.07401,-2.664415 -0.666105,-0.222034 -1.110173,0.296047 -1.110173,0.296047 z"
                 id="path2126" /><path
                 style="display:inline;fill:#48659a;fill-opacity:1;stroke-width:0;paint-order:stroke fill markers"
                 d="m 30.803604,50.677653 c -1.776274,2.516392 -2.812436,6.80906 -0.14802,6.513014 2.664418,-0.296046 4.29267,-4.144646 3.108484,-5.624876 -1.18418,-1.48023 -2.96046,-0.888138 -2.96046,-0.888138 z"
                 id="path2130" /><path
                 style="display:inline;fill:#4f6faa;fill-opacity:1;stroke-width:0;paint-order:stroke fill markers"
                 d="m 32.073601,41.893857 c 1.48023,-0.51808 3.256508,-0.222034 2.96046,1.40622 -0.296045,1.628253 -0.370057,2.960461 0.222036,2.960461 0.592092,0 1.48023,2.072322 2.294355,2.664414 0.814129,0.592092 0.222036,2.368369 -0.444068,2.590404 -0.666105,0.222034 -0.444069,-1.702265 -1.036161,-2.664415 -0.592093,-0.96215 -2.072323,-2.146334 -2.886448,-1.258196 -0.814129,0.888138 -1.702266,-1.9243 -0.962152,-3.108484 0.740116,-1.184184 -1.110171,-0.518081 -1.110171,-1.406219 0,-0.888138 0.962149,-1.184185 0.962149,-1.184185 z"
                 id="path2132" /><path
                 style="display:inline;fill:#4567a5;fill-opacity:1;stroke-width:0;paint-order:stroke fill markers"
                 d="m 40.706338,16.060501 c 1.184185,-0.444069 2.442382,-0.592092 2.664415,0.518081 0.222036,1.110173 -1.184185,-0.148023 -1.628253,0.740115 -0.444069,0.888138 -2.294356,2.812438 -2.294356,1.184184 0,-1.628253 1.258194,-2.44238 1.258194,-2.44238 z"
                 id="path2134"
                 transform="translate(-13.892537,26.69972)" /><path
                 style="fill:#4e6ea5;fill-opacity:1;stroke-width:0;paint-order:stroke fill markers"
                 d="m 18.96858,36.691276 c 0,0 -1.99831,2.960461 -1.702265,4.958772 0.296047,1.998311 0.51808,3.330519 2.146334,3.034473 1.628254,-0.296046 2.294358,0.222034 2.812439,-0.888139 0.51808,-1.110173 -1.628254,-0.444069 -1.554242,-1.850288 0.07401,-1.406219 0.814125,-2.368369 1.776275,-2.220346 0.962152,0.148023 1.046489,1.000973 4.006948,0.778938 2.960463,-0.222034 2.580079,-2.481203 3.61624,-2.111145 1.036161,0.370058 5.458108,-0.609687 5.014039,-1.127767 -0.444071,-0.518081 -7.826478,-1.388625 -9.158684,-0.944556 -1.332209,0.444069 -3.256507,2.072323 -2.590403,0.666104 0.666102,-1.406219 -1.332209,-2.738427 -1.332209,-2.738427 z"
                 id="path2145" /></g><path
               style="mix-blend-mode:darken;fill:url(#radialGradient5405);fill-opacity:1;stroke-width:0;paint-order:stroke fill markers"
               d="m 25.818058,34.868756 c 0,0 4.187776,1.122815 4.424895,9.757461 0.247716,9.020573 -3.630685,11.118966 -3.630685,11.118966 L 14.472173,59.716242 12.656832,32.032285 Z"
               id="path4961" /></g></g></g></g><g
       id="g15193"><path
         style="display:inline;opacity:1;fill:#28184e;fill-opacity:1;stroke-width:0;paint-order:stroke fill markers"
         d="m 38.092004,53.18108 -0.05276,-2.110362 1.899325,-0.211034 1.055182,0.52759 0.52759,0.52759 1.424493,-0.316556 1.371732,-0.896903 0.105518,-1.846564 2.057601,-0.58035 1.688291,0.791387 -0.158279,-5.170384 1.266216,-0.158277 0.211037,3.534855 2.057601,-0.158279 0.580351,3.482096 -10.657322,3.693128 -3.587612,0.422074 z"
         id="path18134" /><path
         style="display:inline;fill:#1b0c3e;fill-opacity:1;stroke-width:0;paint-order:stroke fill markers"
         d="m 47.235133,53.389039 -0.08918,-0.370593 c 0,0 -0.100653,-0.926975 -0.180342,-1.860505 -0.07969,-0.933529 0.448395,-1.554848 0.448395,-1.554848 0,0 0.204923,0.113844 0.284613,0.250458 0.07969,0.136616 0.170769,0.466766 0.170769,0.466766 0,0 0.09107,-0.523687 -0.05692,-0.671686 -0.148,-0.147999 -0.37569,-0.364304 -0.37569,-0.364304 0,0 0.22769,-0.10246 0.443996,0.02277 0.216307,0.125229 0.182153,0.660302 0.182153,0.660302 0,0 0.273228,-0.557841 0,-0.751377 -0.273229,-0.193537 -0.683072,-0.261845 -0.683072,-0.261845 0,0 0.05693,-0.250458 0.295999,-0.318765 0.239074,-0.06831 0.55784,0.02277 0.55784,0.02277 0,0 -0.375689,-0.295998 -0.603379,-0.204921 -0.22769,0.09108 -0.466764,0.45538 -0.466764,0.45538 0,0 -0.147999,-0.35292 -0.341536,-0.398457 -0.193537,-0.04554 -0.466765,0.09107 -0.466765,0.09107 0,0 0.375689,0.05693 0.500919,0.182153 0.125229,0.12523 0.170766,0.261844 0.170766,0.261844 0,0 -0.466763,-0.193537 -0.6603,0.01138 -0.193537,0.20492 -0.159383,0.421226 -0.159383,0.421226 0,0 0.147998,-0.261843 0.387073,-0.307382 0.239074,-0.04554 0.443996,0.04554 0.443996,0.04554 0,0 -0.398459,0 -0.500919,0.261843 -0.10246,0.261844 0,0.523688 0,0.523688 0,0 -0.02277,-0.398458 0.239076,-0.512304 0.261843,-0.113844 0.341534,0.02277 0.341534,0.02277 0,0 -0.56116,0.938845 -0.492295,1.559592 0.108728,0.980078 0.18681,1.958221 0.18681,1.958221 z"
         id="path17798-1-9" /><path
         style="display:inline;opacity:1;fill:#321d62;fill-opacity:1;stroke-width:0;paint-order:stroke fill markers"
         d="M 36.773029,55.133163 V 52.60073 l 3.956924,-0.316553 v 1.371735 l 1.1607,-0.316556 -0.05276,-2.374156 c 0,0 0.263794,-1.160698 1.635529,-1.213456 1.371735,-0.05276 1.530012,0.896903 1.530012,0.896903 l 0.05276,0.685866 2.743469,-0.580347 v 0.738626 l 2.479673,-0.791387 -0.158277,-1.741046 2.69071,-1.055179 0.527589,3.587612 -16.40805,5.697972 z"
         id="path17844" /><path
         style="opacity:1;fill:#1b0c3e;fill-opacity:1;stroke-width:0;paint-order:stroke fill markers"
         d="m 38.90386,55.522535 0.623792,-0.01889 c 0,0 0.359153,-1.398805 0.226833,-2.948832 -0.132318,-1.550027 -0.623793,-2.721999 -0.623793,-2.721999 0,0 0.340252,0.189026 0.47257,0.415859 0.132321,0.226835 0.283543,0.775015 0.283543,0.775015 0,0 0.15122,-0.869527 -0.09451,-1.115264 -0.245737,-0.245737 -0.623792,-0.604888 -0.623792,-0.604888 0,0 0.378055,-0.170124 0.737208,0.0378 0.359154,0.207931 0.302445,1.096362 0.302445,1.096362 0,0 0.453666,-0.926235 0,-1.247582 -0.453667,-0.321347 -1.134168,-0.434766 -1.134168,-0.434766 0,0 0.09452,-0.415859 0.491474,-0.529275 0.396957,-0.113419 0.926235,0.0378 0.926235,0.0378 0,0 -0.623792,-0.491472 -1.001847,-0.340249 -0.378055,0.151222 -0.775012,0.75611 -0.775012,0.75611 0,0 -0.245737,-0.585986 -0.567085,-0.661596 -0.321347,-0.07561 -0.775014,0.15122 -0.775014,0.15122 0,0 0.623792,0.09452 0.831723,0.302445 0.20793,0.207931 0.28354,0.434764 0.28354,0.434764 0,0 -0.775012,-0.321347 -1.096359,0.01889 -0.321347,0.340249 -0.264639,0.699402 -0.264639,0.699402 0,0 0.245735,-0.434763 0.642694,-0.510376 0.396957,-0.07561 0.737209,0.07561 0.737209,0.07561 0,0 -0.661599,0 -0.831723,0.434763 -0.170125,0.434763 0,0.869527 0,0.869527 0,0 -0.03781,-0.661596 0.39696,-0.850625 0.434763,-0.189026 0.567081,0.03781 0.567081,0.03781 0,0 0.491471,1.70125 0.585986,2.343944 0.09451,0.642694 -0.321347,3.497011 -0.321347,3.497011 z"
         id="path17798" /><path
         style="display:inline;fill:#1b0c3e;fill-opacity:1;stroke-width:0;paint-order:stroke fill markers"
         d="m 50.828626,53.59023 0.148073,-0.615331 c 0,0 0.167124,-1.539144 0.299438,-3.089171 0.132318,-1.550027 -0.744512,-2.58166 -0.744512,-2.58166 0,0 -0.340252,0.189026 -0.47257,0.415859 -0.132321,0.226835 -0.283543,0.775015 -0.283543,0.775015 0,0 -0.15122,-0.869527 0.09451,-1.115264 0.245737,-0.245737 0.623792,-0.604888 0.623792,-0.604888 0,0 -0.378055,-0.170124 -0.737208,0.0378 -0.359154,0.207931 -0.302445,1.096362 -0.302445,1.096362 0,0 -0.453666,-0.926235 0,-1.247582 0.453667,-0.321347 1.134168,-0.434766 1.134168,-0.434766 0,0 -0.09452,-0.415859 -0.491474,-0.529275 -0.396957,-0.113419 -0.926235,0.0378 -0.926235,0.0378 0,0 0.623792,-0.491472 1.001847,-0.340249 0.378055,0.151222 0.775012,0.75611 0.775012,0.75611 0,0 0.245737,-0.585986 0.567085,-0.661596 0.321347,-0.07561 0.775014,0.15122 0.775014,0.15122 0,0 -0.623792,0.09452 -0.831723,0.302445 -0.20793,0.207931 -0.28354,0.434764 -0.28354,0.434764 0,0 0.775012,-0.321347 1.096359,0.01889 0.321347,0.340249 0.264639,0.699402 0.264639,0.699402 0,0 -0.245735,-0.434763 -0.642694,-0.510376 -0.396957,-0.07561 -0.737209,0.07561 -0.737209,0.07561 0,0 0.661599,0 0.831723,0.434763 0.170125,0.434763 0,0.869527 0,0.869527 0,0 0.03781,-0.661596 -0.39696,-0.850625 -0.434763,-0.189026 -0.567081,0.03781 -0.567081,0.03781 0,0 0.931746,1.558852 0.817404,2.589537 -0.180531,1.627316 -0.310179,3.251418 -0.310179,3.251418 z"
         id="path17798-1" /></g><g
       id="g13111"><path
         style="display:inline;fill:url(#linearGradient7048);fill-opacity:1;stroke-width:0;paint-order:stroke fill markers"
         d="m 0,50 c 0,0 7.7203812,-2.519656 18.914934,-1.747618 11.194554,0.772038 10.422515,6.176304 18.528915,6.562323 C 45.550248,55.200724 65.40125,44.637024 70.641487,48.252382 88.422967,60.520228 100,50 100,50 v 50 H 0 Z"
         id="path552" /><g
         id="g14533"
         clip-path="url(#clipPath14535)"><path
           style="display:inline;opacity:0.521441;fill:#3e1e09;fill-opacity:0.818512;stroke-width:0;paint-order:stroke fill markers"
           d="m 53.232479,50.739408 c 0,0 -16.587409,6.52775 -16.420395,13.24347 0.167015,6.71572 39.442747,2.345761 26.901671,18.700267 -12.541076,16.354506 26.048609,19.331325 26.048609,19.331325 l -74.02253,1.03701 c 0,0 22.600874,-7.738577 31.397951,-22.321548 5.62409,-9.32309 -16.795998,-8.710888 -16.640289,-15.022694 0.173607,-7.037371 17.044849,-13.317851 17.044849,-13.317851 z"
           id="path7828" /><path
           style="display:inline;opacity:0.607375;fill:url(#linearGradient13589);fill-opacity:1;stroke-width:0;paint-order:stroke fill markers"
           d="m 22.475843,47.890563 c 0,0 4.620112,5.727743 -6.757443,14.101634 -13.0210059,9.583472 16.511452,7.851517 15.865301,15.130796 -1.427767,16.084651 -25.4138623,33.493417 -40.3977573,26.735967 -14.9838957,-6.757438 0,-45.979991 0,-45.979991 0,0 0.3361695,-7.50851 6.0653061,-9.124421 5.7291363,-1.615911 25.2245932,-0.863985 25.2245932,-0.863985 z"
           id="path13236" /><path
           style="display:inline;opacity:0.521441;fill:url(#linearGradient21004);fill-opacity:1;stroke-width:0;paint-order:stroke fill markers"
           d="m 69.804525,45.524692 c 0,0 4.335685,6.069957 -8.671369,9.755291 -13.007054,3.68533 -5.853173,6.937094 2.167842,10.839211 8.021018,3.902118 17.342742,5.853174 17.342742,5.853174 0,0 -13.007057,-8.2378 -7.804235,-11.27278 5.202822,-3.034979 1.517491,-12.356703 1.517491,-12.356703 z"
           id="path14519" /><path
           style="display:inline;opacity:0.240781;fill:url(#linearGradient21012);fill-opacity:1;stroke-width:0;paint-order:stroke fill markers"
           d="m 98.636829,50.293944 c 0,0 -8.620341,-1.615321 -8.837125,7.923186 -0.216784,9.538507 24.422526,6.871115 6.018932,22.209823 -4.674656,3.896151 4.578154,23.189747 4.578154,23.189747 l 7.77855,-29.259704 -2.60141,-23.629485 z"
           id="path14521" /></g></g><g
       id="g6771"
       style="display:inline;opacity:0.521441"><path
         style="fill:#c4e1ea;fill-opacity:1;stroke-width:0;paint-order:stroke fill markers"
         d="m 35.203183,36.759122 -0.09454,1.014105 -0.707082,0.120748 0.706866,0.132349 0.135788,1.032798 0.05672,-1.051489 0.662705,-0.100135 -0.673879,-0.179389 z"
         id="path6420" /><path
         style="display:inline;fill:#c4e1ea;fill-opacity:1;stroke-width:0;paint-order:stroke fill markers"
         d="m 18.793552,21.805066 -0.163512,1.754043 -1.223001,0.20885 1.222628,0.228918 0.234865,1.786375 0.09811,-1.818704 1.146245,-0.173199 -1.165571,-0.310278 z"
         id="path6420-5" /><path
         style="display:inline;fill:#c4e1ea;fill-opacity:1;stroke-width:0;paint-order:stroke fill markers"
         d="m 12.199393,12.394283 -0.123307,1.322746 -0.92228,0.157496 0.921999,0.17263 0.177115,1.347128 0.07399,-1.371508 0.864397,-0.130611 -0.878971,-0.233985 z"
         id="path6420-4" /><path
         style="display:inline;fill:#c4e1ea;fill-opacity:1;stroke-width:0;paint-order:stroke fill markers"
         d="m 68.500035,28.186642 -0.123306,1.322746 -0.92228,0.157496 0.921999,0.17263 0.177114,1.347128 0.07399,-1.371508 0.864398,-0.130611 -0.878972,-0.233985 z"
         id="path6420-0" /><path
         style="fill:#c4e1ea;fill-opacity:1;stroke-width:0;paint-order:stroke fill markers"
         d="m 87.271622,9.8824705 -0.163512,1.7540425 -1.223001,0.20885 1.222628,0.228918 0.234865,1.786375 0.09811,-1.818704 1.146245,-0.173199 -1.165571,-0.310278 z"
         id="path6767" /><circle
         style="display:inline;fill:#ffffff;fill-rule:evenodd;stroke-width:0.264583"
         id="path6891"
         cx="30.797012"
         cy="15.949306"
         r="0.5" /><circle
         style="display:inline;fill:#ffffff;fill-rule:evenodd;stroke-width:0.264583"
         id="path6891-8"
         cx="16.524057"
         cy="5.8911858"
         r="0.5" /><circle
         style="display:inline;fill:#ffffff;fill-rule:evenodd;stroke-width:0.264583"
         id="path6891-6"
         cx="7.6223226"
         cy="39.523155"
         r="0.5" /><circle
         style="display:inline;fill:#ffffff;fill-rule:evenodd;stroke-width:0.264583"
         id="path6891-7"
         cx="53.888767"
         cy="44.600811"
         r="0.5" /><circle
         style="display:inline;fill:#ffffff;fill-rule:evenodd;stroke-width:0.264583"
         id="path6891-1"
         cx="60.413963"
         cy="4.9403949"
         r="0.5" /><circle
         style="display:inline;fill:#ffffff;fill-rule:evenodd;stroke-width:0.264583"
         id="path6891-84"
         cx="68.318596"
         cy="10.445405"
         r="0.5" /><circle
         style="display:inline;fill:#ffffff;fill-rule:evenodd;stroke-width:0.264583"
         id="path6891-9"
         cx="93.16172"
         cy="19.055807"
         r="0.5" /></g></g></svg>
